<svg id="Layer_1" enable-background="new 0 0 700 700" height="700" viewBox="0 0 512 712" width="250bv" fill-opacity="0.4" xmlns="http://www.w3.org/2000/svg"><g><path d="m280 296v200c0 8.84-7.16 16-16 16h-208c-8.84 0-16-7.16-16-16v-200c0-42.34 21.88-80.85 57.67-102.56l12.99-161.5c-8.21-.68-14.66-7.55-14.66-15.94 0-8.84 7.16-16 16-16h96c8.84 0 16 7.16 16 16 0 8.39-6.45 15.26-14.66 15.94l12.99 161.5c35.79 21.71 57.67 60.22 57.67 102.56z" fill="#acebe2"/><path d="m280 472v24c0 8.84-7.16 16-16 16h-208c-8.84 0-16-7.16-16-16v-200c0-42.34 21.88-80.85 57.67-102.56l12.99-161.5c-8.21-.68-14.66-7.55-14.66-15.94 0-8.84 7.16-16 16-16h40.46c-8.83 0-16.35 6.96-16.46 15.8-.1 8.48 6.39 15.45 14.66 16.14l-12.99 161.5c-35.79 21.71-57.67 60.22-57.67 102.56v80c0 53.02 42.98 96 96 96z" fill="#98d7ce"/><path d="m234.91 336.73c0 24.442-16.133 44.547-35.93 59.22-16.16 11.97-32.27 18.59-32.94 18.87-3.765 1.533-8.117 1.613-12.08 0-.67-.28-16.78-6.9-32.94-18.87-23.5-17.41-35.93-37.89-35.93-59.22 0-37.663 41.897-61.446 74.91-41.69 32.694-19.565 74.91 3.729 74.91 41.69z" fill="#f79caf"/><path d="m226.22 367.03c-6.59 11.16-16.36 20.86-27.24 28.92-16.16 11.97-32.27 18.59-32.94 18.87-3.76 1.53-8.12 1.61-12.08 0-.67-.28-16.78-6.9-32.94-18.87-23.5-17.41-35.93-37.89-35.93-59.22 0-18.57 10.18-33.76 24.46-42.02-2.22 5.49-3.46 11.55-3.46 18.02 0 21.33 12.43 41.81 35.93 59.22 16.16 11.97 32.27 18.59 32.94 18.87 3.96 1.61 8.32 1.53 12.08 0 .67-.28 16.78-6.9 32.94-18.87 2.13-1.58 4.22-3.22 6.24-4.92z" fill="#e3889b"/><path d="m456 208h-128c-8.84 0-16 7.16-16 16v96c0 38.632 27.53 70.956 64 78.39v81.61h-32c-8.836 0-16 7.164-16 16s7.164 16 16 16h96c8.836 0 16-7.164 16-16s-7.164-16-16-16h-32v-81.61c36.565-7.453 64-39.866 64-78.39v-96c0-8.84-7.16-16-16-16z" fill="#f79caf"/><path d="m472 224v96c0 9.37-1.62 18.37-4.6 26.73-52.437 26.022-115.4-12.105-115.4-71.73v-67h104c8.84 0 16 7.16 16 16z" fill="#ff9cb1"/></g></svg>

